<svg xmlns="http://www.w3.org/2000/svg" xmlns:xlink="http://www.w3.org/1999/xlink" width="1546" zoomAndPan="magnify" viewBox="0 0 1159.5 782.249981" height="1043" preserveAspectRatio="xMidYMid meet" version="1.0"><defs><g/><clipPath id="a61a7f3311"><path d="M 398 0 L 721 0 L 721 518.019531 L 398 518.019531 Z M 398 0 " clip-rule="nonzero"/></clipPath><clipPath id="13ba01db55"><path d="M 320.503906 125 L 451 125 L 451 260 L 320.503906 260 Z M 320.503906 125 " clip-rule="nonzero"/></clipPath><clipPath id="b52fca1660"><path d="M 720 238 L 837.367188 238 L 837.367188 332 L 720 332 Z M 720 238 " clip-rule="nonzero"/></clipPath><clipPath id="3b38f2270d"><path d="M 472 206 L 721 206 L 721 518.019531 L 472 518.019531 Z M 472 206 " clip-rule="nonzero"/></clipPath><clipPath id="03e49de3ad"><path d="M 510.855469 305.847656 L 612.632812 305.847656 L 612.632812 407.621094 L 510.855469 407.621094 Z M 510.855469 305.847656 " clip-rule="nonzero"/></clipPath><clipPath id="70de698570"><path d="M 561.742188 305.847656 C 533.640625 305.847656 510.855469 328.628906 510.855469 356.734375 C 510.855469 384.839844 533.640625 407.621094 561.742188 407.621094 C 589.847656 407.621094 612.632812 384.839844 612.632812 356.734375 C 612.632812 328.628906 589.847656 305.847656 561.742188 305.847656 Z M 561.742188 305.847656 " clip-rule="nonzero"/></clipPath></defs><g clip-path="url(#a61a7f3311)"><path fill="#00c2cb" d="M 398.335938 365.753906 C 402.734375 450.742188 473.03125 518.34375 559.199219 518.34375 C 648.125 518.34375 720.257812 446.222656 720.257812 357.285156 C 720.257812 288.304688 676.875 229.503906 615.96875 206.53125 C 645.171875 230.6875 663.8125 267.238281 663.8125 308.1875 C 663.8125 354.851562 639.59375 395.871094 602.96875 419.300781 C 598.707031 422.316406 594.105469 424.878906 589.316406 426.984375 C 580.058594 430.921875 569.886719 433.152344 559.1875 433.152344 C 517.058594 433.152344 482.992188 399.023438 482.992188 356.953125 C 482.992188 338.449219 489.554688 321.582031 500.449219 308.386719 C 552.097656 246.039062 580.453125 205.867188 580.453125 125.152344 C 580.453125 79.539062 568.238281 36.816406 546.914062 -0.0078125 C 554.660156 20.34375 558.855469 42.394531 558.855469 65.488281 C 558.855469 129.214844 526.046875 188.089844 472.160156 221.6875 C 436.0625 244.917969 409.875 282.136719 401.207031 325.644531 C 399.175781 335.890625 398.058594 346.453125 398.058594 357.277344 C 398.078125 360.117188 398.210938 362.9375 398.335938 365.753906 Z M 398.335938 365.753906 " fill-opacity="1" fill-rule="evenodd"/></g><g clip-path="url(#13ba01db55)"><path fill="#004aad" d="M 409.5625 259.113281 C 384.226562 237.320312 345.113281 194.921875 320.503906 125.816406 C 320.503906 125.816406 357.917969 187.507812 450.90625 214.875 C 434.570312 227.214844 420.65625 242.171875 409.5625 259.113281 Z M 409.5625 259.113281 " fill-opacity="1" fill-rule="evenodd"/></g><g clip-path="url(#b52fca1660)"><path fill="#00c2cb" d="M 720.25 279.722656 C 748.269531 263.1875 787.382812 246.246094 837.921875 238.773438 C 837.921875 238.773438 777.347656 269.550781 736.128906 331.699219 C 733.507812 313.453125 728.066406 295.925781 720.25 279.722656 Z M 720.25 279.722656 " fill-opacity="1" fill-rule="evenodd"/></g><g clip-path="url(#3b38f2270d)"><path fill="#004aad" d="M 720.25 357.285156 C 720.25 312.003906 701.546875 271.042969 671.421875 241.777344 C 655.671875 226.488281 636.835938 214.410156 615.96875 206.53125 C 626.667969 215.324219 635.925781 225.898438 643.398438 237.640625 C 656.328125 258.054688 663.8125 282.210938 663.8125 308.199219 C 663.8125 354.859375 639.59375 395.882812 602.96875 419.3125 C 598.707031 422.328125 594.105469 424.886719 589.316406 426.992188 C 580.058594 430.933594 569.886719 433.160156 559.1875 433.160156 C 517.058594 433.160156 482.992188 399.035156 482.992188 356.964844 C 482.992188 347.902344 484.570312 339.175781 487.449219 331.109375 C 477.996094 351.585938 472.75 374.421875 472.75 398.441406 C 472.75 443.726562 491.453125 484.683594 521.578125 513.949219 C 533.65625 516.84375 546.25 518.34375 559.1875 518.34375 C 648.125 518.34375 720.25 446.222656 720.25 357.285156 Z M 720.25 357.285156 " fill-opacity="1" fill-rule="evenodd"/></g><path fill="#004aad" d="M 456.753906 42.207031 C 485.894531 42.207031 509.519531 65.832031 509.519531 95.035156 C 509.519531 124.175781 485.894531 147.804688 456.753906 147.804688 C 427.613281 147.804688 403.988281 124.175781 403.988281 95.035156 C 403.988281 65.832031 427.613281 42.207031 456.753906 42.207031 Z M 456.753906 42.207031 " fill-opacity="1" fill-rule="evenodd"/><path fill="#00c2cb" d="M 723.792969 149.699219 C 746.042969 149.699219 764.027344 167.75 764.027344 189.996094 C 764.027344 212.242188 746.042969 230.292969 723.792969 230.292969 C 701.546875 230.292969 683.496094 212.242188 683.496094 189.996094 C 683.496094 167.75 701.546875 149.699219 723.792969 149.699219 Z M 723.792969 149.699219 " fill-opacity="1" fill-rule="evenodd"/><g clip-path="url(#03e49de3ad)"><g clip-path="url(#70de698570)"><path fill="#00c2cb" d="M 510.855469 305.847656 L 612.632812 305.847656 L 612.632812 407.621094 L 510.855469 407.621094 Z M 510.855469 305.847656 " fill-opacity="1" fill-rule="nonzero"/></g></g><g fill="#004aad" fill-opacity="1"><g transform="translate(293.206537, 674.309475)"><g><path d="M 43.132812 -86.511719 L 9.886719 -86.511719 L 9.886719 0 L 28.546875 0 L 28.546875 -26.941406 L 43.132812 -26.941406 C 60.558594 -26.941406 73.65625 -39.671875 73.65625 -56.726562 C 73.65625 -73.78125 60.433594 -86.511719 43.132812 -86.511719 Z M 42.265625 -44.242188 L 28.546875 -44.242188 L 28.546875 -69.085938 L 42.265625 -69.085938 C 49.679688 -69.085938 54.75 -63.894531 54.75 -56.726562 C 54.75 -49.558594 49.679688 -44.242188 42.265625 -44.242188 Z M 42.265625 -44.242188 "/></g></g></g><g fill="#004aad" fill-opacity="1"><g transform="translate(370.0671, 674.309475)"><g><path d="M 57.46875 0 L 78.355469 0 L 59.199219 -32.625 C 68.835938 -37.324219 75.015625 -46.46875 75.015625 -57.839844 C 75.015625 -74.523438 62.039062 -86.511719 44.738281 -86.511719 L 9.886719 -86.511719 L 9.886719 0 L 28.546875 0 L 28.546875 -29.414062 L 40.535156 -29.414062 Z M 28.546875 -69.207031 L 43.503906 -69.207031 C 51.410156 -69.207031 55.984375 -64.386719 55.984375 -57.960938 C 55.984375 -51.410156 51.410156 -46.714844 43.503906 -46.714844 L 28.546875 -46.714844 Z M 28.546875 -69.207031 "/></g></g></g><g fill="#004aad" fill-opacity="1"><g transform="translate(451.746884, 674.309475)"><g><path d="M 50.917969 1.976562 C 77.242188 1.976562 96.890625 -17.425781 96.890625 -43.253906 C 96.890625 -68.960938 77.242188 -88.363281 50.917969 -88.363281 C 24.46875 -88.363281 4.695312 -68.835938 4.695312 -43.253906 C 4.695312 -17.550781 24.46875 1.976562 50.917969 1.976562 Z M 50.917969 -15.695312 C 35.46875 -15.695312 23.730469 -27.683594 23.730469 -43.253906 C 23.730469 -58.828125 35.46875 -70.691406 50.917969 -70.691406 C 66.367188 -70.691406 77.859375 -58.949219 77.859375 -43.253906 C 77.859375 -27.558594 66.367188 -15.695312 50.917969 -15.695312 Z M 50.917969 -15.695312 "/></g></g></g><g fill="#004aad" fill-opacity="1"><g transform="translate(553.445027, 674.309475)"><g><path d="M 34.605469 1.976562 C 53.511719 1.976562 65.996094 -11.121094 65.996094 -29.414062 L 65.996094 -86.511719 L 47.582031 -86.511719 L 47.582031 -30.402344 C 47.582031 -21.378906 42.265625 -15.695312 34.605469 -15.695312 C 26.570312 -15.695312 21.257812 -21.503906 21.257812 -30.402344 L 21.257812 -32.625 L 2.71875 -32.625 L 2.71875 -29.414062 C 2.71875 -11.121094 16.066406 1.976562 34.605469 1.976562 Z M 34.605469 1.976562 "/></g></g></g><g fill="#004aad" fill-opacity="1"><g transform="translate(628.699198, 674.309475)"><g><path d="M 28.546875 -17.300781 L 28.546875 -35.097656 L 58.578125 -35.097656 L 58.578125 -52.03125 L 28.546875 -52.03125 L 28.546875 -69.207031 L 61.792969 -69.207031 L 61.792969 -86.511719 L 9.886719 -86.511719 L 9.886719 0 L 63.152344 0 L 63.152344 -17.300781 Z M 28.546875 -17.300781 "/></g></g></g><g fill="#004aad" fill-opacity="1"><g transform="translate(697.774844, 674.309475)"><g><path d="M 49.558594 1.976562 C 70.9375 1.976562 87.746094 -12.359375 91.699219 -33.738281 L 72.792969 -33.738281 C 69.703125 -22.863281 60.929688 -15.941406 49.558594 -15.941406 C 34.851562 -15.941406 23.851562 -27.558594 23.851562 -43.132812 C 23.851562 -58.703125 34.851562 -70.445312 49.558594 -70.445312 C 60.433594 -70.445312 69.085938 -64.015625 72.667969 -53.882812 L 91.332031 -53.882812 C 87.375 -74.398438 70.566406 -88.363281 49.558594 -88.363281 C 24.097656 -88.363281 4.820312 -68.835938 4.820312 -43.132812 C 4.820312 -17.550781 24.097656 1.976562 49.558594 1.976562 Z M 49.558594 1.976562 "/></g></g></g><g fill="#004aad" fill-opacity="1"><g transform="translate(793.047331, 674.309475)"><g><path d="M 69.457031 -86.511719 L 2.59375 -86.511719 L 2.59375 -69.085938 L 26.695312 -69.085938 L 26.695312 0 L 45.355469 0 L 45.355469 -69.085938 L 69.457031 -69.085938 Z M 69.457031 -86.511719 "/></g></g></g><g fill="#038e94" fill-opacity="1"><g transform="translate(451.376621, 761.046353)"><g><path d="M 12.09375 0.3125 C 10.03125 0.3125 8.039062 -0.00390625 6.125 -0.640625 C 4.207031 -1.285156 2.703125 -2.113281 1.609375 -3.125 L 3.046875 -6.1875 C 4.085938 -5.238281 5.421875 -4.472656 7.046875 -3.890625 C 8.679688 -3.304688 10.363281 -3.015625 12.09375 -3.015625 C 14.363281 -3.015625 16.054688 -3.398438 17.171875 -4.171875 C 18.296875 -4.941406 18.859375 -5.960938 18.859375 -7.234375 C 18.859375 -8.171875 18.550781 -8.929688 17.9375 -9.515625 C 17.320312 -10.109375 16.5625 -10.5625 15.65625 -10.875 C 14.757812 -11.1875 13.492188 -11.539062 11.859375 -11.9375 C 9.796875 -12.425781 8.128906 -12.914062 6.859375 -13.40625 C 5.597656 -13.90625 4.515625 -14.671875 3.609375 -15.703125 C 2.710938 -16.734375 2.265625 -18.125 2.265625 -19.875 C 2.265625 -21.332031 2.648438 -22.648438 3.421875 -23.828125 C 4.191406 -25.003906 5.359375 -25.941406 6.921875 -26.640625 C 8.484375 -27.347656 10.425781 -27.703125 12.75 -27.703125 C 14.375 -27.703125 15.96875 -27.492188 17.53125 -27.078125 C 19.09375 -26.660156 20.4375 -26.0625 21.5625 -25.28125 L 20.265625 -22.140625 C 19.117188 -22.867188 17.890625 -23.421875 16.578125 -23.796875 C 15.273438 -24.179688 14 -24.375 12.75 -24.375 C 10.53125 -24.375 8.867188 -23.96875 7.765625 -23.15625 C 6.660156 -22.351562 6.109375 -21.3125 6.109375 -20.03125 C 6.109375 -19.09375 6.421875 -18.328125 7.046875 -17.734375 C 7.671875 -17.148438 8.445312 -16.695312 9.375 -16.375 C 10.300781 -16.050781 11.554688 -15.707031 13.140625 -15.34375 C 15.203125 -14.84375 16.859375 -14.34375 18.109375 -13.84375 C 19.367188 -13.351562 20.445312 -12.597656 21.34375 -11.578125 C 22.238281 -10.566406 22.6875 -9.195312 22.6875 -7.46875 C 22.6875 -6.039062 22.296875 -4.734375 21.515625 -3.546875 C 20.734375 -2.359375 19.546875 -1.414062 17.953125 -0.71875 C 16.367188 -0.03125 14.414062 0.3125 12.09375 0.3125 Z M 12.09375 0.3125 "/></g></g></g><g fill="#038e94" fill-opacity="1"><g transform="translate(506.968983, 761.046353)"><g><path d="M 16.46875 0.3125 C 13.707031 0.3125 11.21875 -0.289062 9 -1.5 C 6.78125 -2.71875 5.035156 -4.394531 3.765625 -6.53125 C 2.503906 -8.664062 1.875 -11.050781 1.875 -13.6875 C 1.875 -16.320312 2.503906 -18.707031 3.765625 -20.84375 C 5.035156 -22.988281 6.78125 -24.664062 9 -25.875 C 11.21875 -27.09375 13.707031 -27.703125 16.46875 -27.703125 C 19.207031 -27.703125 21.6875 -27.09375 23.90625 -25.875 C 26.125 -24.664062 27.859375 -23 29.109375 -20.875 C 30.359375 -18.75 30.984375 -16.351562 30.984375 -13.6875 C 30.984375 -11.03125 30.359375 -8.640625 29.109375 -6.515625 C 27.859375 -4.390625 26.125 -2.71875 23.90625 -1.5 C 21.6875 -0.289062 19.207031 0.3125 16.46875 0.3125 Z M 16.46875 -3.171875 C 18.476562 -3.171875 20.285156 -3.625 21.890625 -4.53125 C 23.492188 -5.445312 24.757812 -6.707031 25.6875 -8.3125 C 26.613281 -9.914062 27.078125 -11.707031 27.078125 -13.6875 C 27.078125 -15.675781 26.613281 -17.472656 25.6875 -19.078125 C 24.757812 -20.679688 23.492188 -21.9375 21.890625 -22.84375 C 20.285156 -23.757812 18.476562 -24.21875 16.46875 -24.21875 C 14.457031 -24.21875 12.632812 -23.757812 11 -22.84375 C 9.375 -21.9375 8.097656 -20.679688 7.171875 -19.078125 C 6.253906 -17.472656 5.796875 -15.675781 5.796875 -13.6875 C 5.796875 -11.707031 6.253906 -9.914062 7.171875 -8.3125 C 8.097656 -6.707031 9.375 -5.445312 11 -4.53125 C 12.632812 -3.625 14.457031 -3.171875 16.46875 -3.171875 Z M 16.46875 -3.171875 "/></g></g></g><g fill="#038e94" fill-opacity="1"><g transform="translate(571.125926, 761.046353)"><g><path d="M 16.359375 0.3125 C 13.617188 0.3125 11.144531 -0.289062 8.9375 -1.5 C 6.738281 -2.71875 5.007812 -4.390625 3.75 -6.515625 C 2.5 -8.640625 1.875 -11.03125 1.875 -13.6875 C 1.875 -16.351562 2.5 -18.75 3.75 -20.875 C 5.007812 -23 6.742188 -24.664062 8.953125 -25.875 C 11.171875 -27.09375 13.648438 -27.703125 16.390625 -27.703125 C 18.535156 -27.703125 20.492188 -27.34375 22.265625 -26.625 C 24.035156 -25.90625 25.546875 -24.84375 26.796875 -23.4375 L 24.25 -20.96875 C 22.195312 -23.132812 19.628906 -24.21875 16.546875 -24.21875 C 14.515625 -24.21875 12.675781 -23.757812 11.03125 -22.84375 C 9.382812 -21.9375 8.097656 -20.679688 7.171875 -19.078125 C 6.253906 -17.472656 5.796875 -15.675781 5.796875 -13.6875 C 5.796875 -11.707031 6.253906 -9.914062 7.171875 -8.3125 C 8.097656 -6.707031 9.382812 -5.445312 11.03125 -4.53125 C 12.675781 -3.625 14.515625 -3.171875 16.546875 -3.171875 C 19.597656 -3.171875 22.164062 -4.265625 24.25 -6.453125 L 26.796875 -3.984375 C 25.546875 -2.578125 24.023438 -1.507812 22.234375 -0.78125 C 20.453125 -0.0507812 18.492188 0.3125 16.359375 0.3125 Z M 16.359375 0.3125 "/></g></g></g><g fill="#038e94" fill-opacity="1"><g transform="translate(630.707287, 761.046353)"><g><path d="M 4.109375 -27.390625 L 8.015625 -27.390625 L 8.015625 0 L 4.109375 0 Z M 4.109375 -27.390625 "/></g></g></g><g fill="#038e94" fill-opacity="1"><g transform="translate(674.137206, 761.046353)"><g><path d="M 16.46875 0.3125 C 13.707031 0.3125 11.21875 -0.289062 9 -1.5 C 6.78125 -2.71875 5.035156 -4.394531 3.765625 -6.53125 C 2.503906 -8.664062 1.875 -11.050781 1.875 -13.6875 C 1.875 -16.320312 2.503906 -18.707031 3.765625 -20.84375 C 5.035156 -22.988281 6.78125 -24.664062 9 -25.875 C 11.21875 -27.09375 13.707031 -27.703125 16.46875 -27.703125 C 19.207031 -27.703125 21.6875 -27.09375 23.90625 -25.875 C 26.125 -24.664062 27.859375 -23 29.109375 -20.875 C 30.359375 -18.75 30.984375 -16.351562 30.984375 -13.6875 C 30.984375 -11.03125 30.359375 -8.640625 29.109375 -6.515625 C 27.859375 -4.390625 26.125 -2.71875 23.90625 -1.5 C 21.6875 -0.289062 19.207031 0.3125 16.46875 0.3125 Z M 16.46875 -3.171875 C 18.476562 -3.171875 20.285156 -3.625 21.890625 -4.53125 C 23.492188 -5.445312 24.757812 -6.707031 25.6875 -8.3125 C 26.613281 -9.914062 27.078125 -11.707031 27.078125 -13.6875 C 27.078125 -15.675781 26.613281 -17.472656 25.6875 -19.078125 C 24.757812 -20.679688 23.492188 -21.9375 21.890625 -22.84375 C 20.285156 -23.757812 18.476562 -24.21875 16.46875 -24.21875 C 14.457031 -24.21875 12.632812 -23.757812 11 -22.84375 C 9.375 -21.9375 8.097656 -20.679688 7.171875 -19.078125 C 6.253906 -17.472656 5.796875 -15.675781 5.796875 -13.6875 C 5.796875 -11.707031 6.253906 -9.914062 7.171875 -8.3125 C 8.097656 -6.707031 9.375 -5.445312 11 -4.53125 C 12.632812 -3.625 14.457031 -3.171875 16.46875 -3.171875 Z M 16.46875 -3.171875 "/></g></g></g></svg>